<svg id="Layer_1" data-name="Layer 1" xmlns="http://www.w3.org/2000/svg" viewBox="0 0 161.94 75.77"><defs><style>.cls-1{fill:#290e0f;stroke:#280e0f;stroke-miterlimit:10;stroke-width:0.5px;}</style></defs><title>bioheadline</title><path class="cls-1" d="M55.45,328.67l-3.9-11.74h2.1l1.82,5.94c.45,1.46.86,2.92,1.14,4.06h0a38.82,38.82,0,0,1,1.25-4.08L60,316.93H62l1.87,6a37.27,37.27,0,0,1,1.07,4h0c.32-1.29.75-2.6,1.23-4.06l2-5.92h2l-4.35,11.74H63.86l-1.93-6.11a27.12,27.12,0,0,1-1-3.84h0a29.09,29.09,0,0,1-1.18,3.84l-2.18,6.11Z" transform="translate(-36.08 -316.05)"/><path class="cls-1" d="M72.49,324.73c.05,2.08,1.78,2.93,3.78,2.93a9,9,0,0,0,3-.44l.34,1.1a11.46,11.46,0,0,1-3.66.52c-3.4,0-5.42-1.7-5.42-4.25s2-4.54,5.16-4.54c3.6,0,4.56,2.42,4.56,4a4.64,4.64,0,0,1-.07.71Zm5.87-1.1c0-1-.52-2.49-2.77-2.49a3,3,0,0,0-3.08,2.49Z" transform="translate(-36.08 -316.05)"/><path class="cls-1" d="M82.69,328.67c0-.58.09-1.43.09-2.18V316.3h2v5.3h0a4.51,4.51,0,0,1,3.76-1.55c2.73,0,4.66,1.74,4.64,4.3,0,3-2.48,4.51-4.94,4.51a4.3,4.3,0,0,1-3.69-1.58h-.06l-.09,1.39Zm2.07-3.38a2.11,2.11,0,0,0,.09.56,3,3,0,0,0,3,1.79,3.08,3.08,0,0,0,3.35-3.24,3,3,0,0,0-3.28-3.13,3.13,3.13,0,0,0-3,1.88,2.56,2.56,0,0,0-.11.62Z" transform="translate(-36.08 -316.05)"/><path class="cls-1" d="M110.06,316.3v10.19a20.57,20.57,0,0,0,.09,2.18h-1.79l-.1-1.46h0a4.4,4.4,0,0,1-3.76,1.65c-2.66,0-4.71-1.72-4.71-4.28,0-2.81,2.26-4.53,4.94-4.53a4.05,4.05,0,0,1,3.32,1.29h0v-5Zm-2,7.37A2,2,0,0,0,108,323a2.87,2.87,0,0,0-2.89-1.78,3.1,3.1,0,0,0-3.3,3.26,3,3,0,0,0,3.25,3.11,3,3,0,0,0,2.94-1.83,2,2,0,0,0,.09-.66Z" transform="translate(-36.08 -316.05)"/><path class="cls-1" d="M114.5,324.73c0,2.08,1.78,2.93,3.78,2.93a9,9,0,0,0,3-.44l.34,1.1a11.48,11.48,0,0,1-3.67.52c-3.39,0-5.41-1.7-5.41-4.25s2-4.54,5.16-4.54c3.6,0,4.55,2.42,4.55,4a4.93,4.93,0,0,1-.06.71Zm5.87-1.1c0-1-.52-2.49-2.78-2.49a2.94,2.94,0,0,0-3.07,2.49Z" transform="translate(-36.08 -316.05)"/><path class="cls-1" d="M125.56,320.24l2.16,4.74a17.07,17.07,0,0,1,.89,2.16h.07c.25-.7.57-1.4.93-2.16l2.14-4.74h2.09l-4.32,8.43h-1.91l-4.19-8.43Z" transform="translate(-36.08 -316.05)"/><path class="cls-1" d="M136.62,324.73c0,2.08,1.78,2.93,3.78,2.93a9,9,0,0,0,3-.44l.34,1.1a11.48,11.48,0,0,1-3.67.52c-3.39,0-5.41-1.7-5.41-4.25s2-4.54,5.16-4.54c3.6,0,4.55,2.42,4.55,4a4.93,4.93,0,0,1-.06.71Zm5.87-1.1c0-1-.52-2.49-2.78-2.49a2.94,2.94,0,0,0-3.07,2.49Z" transform="translate(-36.08 -316.05)"/><path class="cls-1" d="M146.91,316.3h2v12.37h-2Z" transform="translate(-36.08 -316.05)"/><path class="cls-1" d="M162.24,324.38c0,3.12-2.82,4.48-5.48,4.48-3,0-5.28-1.67-5.28-4.34s2.41-4.47,5.46-4.47S162.24,321.81,162.24,324.38Zm-8.73.09a3.18,3.18,0,0,0,3.34,3.24,3.22,3.22,0,0,0,3.35-3.27,3.35,3.35,0,0,0-6.69,0Z" transform="translate(-36.08 -316.05)"/><path class="cls-1" d="M164.77,323c0-1.08,0-1.95-.09-2.75h1.8l.09,1.44h0a4.77,4.77,0,0,1,3.92-1.63c2.66,0,4.66,1.72,4.66,4.28,0,3-2.41,4.53-5,4.53a4.32,4.32,0,0,1-3.39-1.32h-.05v4.58h-2Zm2,2.25a3,3,0,0,0,.09.62,3.31,3.31,0,1,0,3.07-4.59,3.12,3.12,0,0,0-3,1.89,2,2,0,0,0-.14.63Z" transform="translate(-36.08 -316.05)"/><path class="cls-1" d="M178.83,324.73c0,2.08,1.78,2.93,3.78,2.93a9,9,0,0,0,3-.44l.34,1.1a11.41,11.41,0,0,1-3.66.52c-3.39,0-5.42-1.7-5.42-4.25s2-4.54,5.17-4.54c3.59,0,4.55,2.42,4.55,4a4.64,4.64,0,0,1-.07.71Zm5.87-1.1c0-1-.52-2.49-2.77-2.49a2.93,2.93,0,0,0-3.07,2.49Z" transform="translate(-36.08 -316.05)"/><path class="cls-1" d="M189.12,322.87c0-1,0-1.85-.09-2.63h1.75l.07,1.65h.09a3.28,3.28,0,0,1,3.05-1.84,2.47,2.47,0,0,1,.57.05v1.44a4.5,4.5,0,0,0-.68-.05,2.61,2.61,0,0,0-2.69,2,3.71,3.71,0,0,0-.09.71v4.5h-2Z" transform="translate(-36.08 -316.05)"/><path class="cls-1" d="M194.06,330.81a20.5,20.5,0,0,0,1.36-4.16l2.23-.18a18.51,18.51,0,0,1-2.16,4.24Z" transform="translate(-36.08 -316.05)"/><path class="cls-1" d="M46.61,341.14c0,.61-.09,1.29-.09,2.32v4.89c0,1.94-.5,3.12-1.57,3.85a7,7,0,0,1-4,1,8.88,8.88,0,0,1-3.66-.69l.5-1.17A7.62,7.62,0,0,0,41,352c2,0,3.55-.82,3.55-2.94v-.94h0a4.33,4.33,0,0,1-3.5,1.41c-2.73,0-4.69-1.78-4.69-4.11,0-2.86,2.43-4.48,5-4.48a4,4,0,0,1,3.44,1.46h0l.09-1.27Zm-2.07,3.33a1.75,1.75,0,0,0-.11-.7,2.87,2.87,0,0,0-2.8-1.62,3.07,3.07,0,0,0-3.28,3.19,3,3,0,0,0,3.26,3,2.94,2.94,0,0,0,2.77-1.57,2,2,0,0,0,.16-.81Z" transform="translate(-36.08 -316.05)"/><path class="cls-1" d="M49.71,343.77c0-1,0-1.84-.09-2.63h1.75l.07,1.66h.09a3.29,3.29,0,0,1,3-1.85,3.18,3.18,0,0,1,.57.05v1.45a3.49,3.49,0,0,0-.68-.05,2.61,2.61,0,0,0-2.69,2,3.61,3.61,0,0,0-.09.71v4.49h-2Z" transform="translate(-36.08 -316.05)"/><path class="cls-1" d="M63.14,349.57,63,348.51h-.07a4.64,4.64,0,0,1-3.37,1.26c-2.23,0-3.37-1.21-3.37-2.43,0-2,2.37-3.15,6.63-3.13V344c0-.7-.26-2-2.51-2a6.8,6.8,0,0,0-2.86.63l-.46-1a8.52,8.52,0,0,1,3.62-.75c3.37,0,4.18,1.76,4.18,3.45v3.15a8.84,8.84,0,0,0,.19,2Zm-.3-4.3c-2.18,0-4.66.26-4.66,1.9,0,1,.86,1.46,1.88,1.46a2.78,2.78,0,0,0,2.67-1.41,1.21,1.21,0,0,0,.11-.49Z" transform="translate(-36.08 -316.05)"/><path class="cls-1" d="M68,343.9c0-1.08-.05-2-.09-2.76h1.79l.1,1.45h0A4.74,4.74,0,0,1,73.76,341c2.67,0,4.67,1.73,4.67,4.29,0,3-2.41,4.53-5,4.53A4.3,4.3,0,0,1,70,348.44h0V353H68Zm2,2.24a2.45,2.45,0,0,0,.09.63,3.31,3.31,0,1,0,3.07-4.6,3.13,3.13,0,0,0-3,1.9,2.21,2.21,0,0,0-.13.63Z" transform="translate(-36.08 -316.05)"/><path class="cls-1" d="M81,337.21h2v5.26h0a3.38,3.38,0,0,1,1.44-1.08,5.1,5.1,0,0,1,2-.44c1.47,0,3.84.7,3.84,3.61v5h-2v-4.84a2.28,2.28,0,0,0-2.55-2.51,2.86,2.86,0,0,0-2.68,1.54,1.39,1.39,0,0,0-.14.73v5.08H81Z" transform="translate(-36.08 -316.05)"/><path class="cls-1" d="M95.82,338.77c0,.53-.48,1-1.28,1s-1.2-.42-1.2-1,.52-.95,1.25-.95S95.82,338.23,95.82,338.77Zm-2.23,10.8v-8.43h2v8.43Z" transform="translate(-36.08 -316.05)"/><path class="cls-1" d="M106.76,349.26a9.24,9.24,0,0,1-3.16.49c-3.32,0-5.48-1.73-5.48-4.3S100.44,341,104,341a8.48,8.48,0,0,1,2.78.44l-.46,1.18a5.82,5.82,0,0,0-2.32-.4c-2.52,0-3.89,1.43-3.89,3.19,0,1.95,1.64,3.15,3.82,3.15a7.2,7.2,0,0,0,2.46-.42Z" transform="translate(-36.08 -316.05)"/><path class="cls-1" d="M123.44,337.21V347.4a20.25,20.25,0,0,0,.09,2.17h-1.79l-.1-1.46h0a4.4,4.4,0,0,1-3.76,1.66c-2.66,0-4.71-1.73-4.71-4.29,0-2.8,2.26-4.53,4.94-4.53a4.05,4.05,0,0,1,3.32,1.29h0v-5Zm-2,7.36a2,2,0,0,0-.09-.64,2.88,2.88,0,0,0-2.89-1.78,3.1,3.1,0,0,0-3.3,3.26,3,3,0,0,0,3.25,3.12,3,3,0,0,0,2.94-1.83,2,2,0,0,0,.09-.66Z" transform="translate(-36.08 -316.05)"/><path class="cls-1" d="M127.88,345.64c.05,2.07,1.78,2.92,3.78,2.92a9.34,9.34,0,0,0,3.05-.43l.34,1.1a11.46,11.46,0,0,1-3.66.52c-3.4,0-5.42-1.71-5.42-4.25s2-4.55,5.16-4.55c3.6,0,4.56,2.42,4.56,4a4.8,4.8,0,0,1-.07.72Zm5.87-1.1c0-1-.52-2.49-2.77-2.49a3,3,0,0,0-3.08,2.49Z" transform="translate(-36.08 -316.05)"/><path class="cls-1" d="M137.89,348a6.59,6.59,0,0,0,2.64.61c1.46,0,2.14-.56,2.14-1.26s-.57-1.13-2-1.55c-2-.54-2.91-1.37-2.91-2.38,0-1.36,1.44-2.48,3.8-2.48a6.79,6.79,0,0,1,2.71.53l-.5,1.11a5.25,5.25,0,0,0-2.25-.49c-1.19,0-1.85.52-1.85,1.15s.66,1,2.1,1.43c1.91.56,2.89,1.29,2.89,2.54,0,1.48-1.5,2.53-4.12,2.53a7.86,7.86,0,0,1-3.1-.58Z" transform="translate(-36.08 -316.05)"/><path class="cls-1" d="M149.41,338.77c0,.53-.48,1-1.27,1s-1.21-.42-1.21-1,.52-.95,1.25-.95S149.41,338.23,149.41,338.77Zm-2.23,10.8v-8.43h2v8.43Z" transform="translate(-36.08 -316.05)"/><path class="cls-1" d="M162,341.14c0,.61-.09,1.29-.09,2.32v4.89c0,1.94-.5,3.12-1.57,3.85a7,7,0,0,1-4,1,9,9,0,0,1-3.67-.69l.5-1.17a7.71,7.71,0,0,0,3.24.66c2,0,3.55-.82,3.55-2.94v-.94h0a4.33,4.33,0,0,1-3.5,1.41c-2.73,0-4.69-1.78-4.69-4.11,0-2.86,2.43-4.48,5-4.48a3.93,3.93,0,0,1,3.43,1.46h.05l.09-1.27Zm-2.07,3.33a1.75,1.75,0,0,0-.11-.7,2.88,2.88,0,0,0-2.8-1.62,3.07,3.07,0,0,0-3.28,3.19,3.25,3.25,0,0,0,6,1.46,2,2,0,0,0,.16-.81Z" transform="translate(-36.08 -316.05)"/><path class="cls-1" d="M165.09,343.43a22.67,22.67,0,0,0-.09-2.29h1.77l.12,1.4h0a4.37,4.37,0,0,1,3.64-1.59c1.53,0,3.89.7,3.89,3.59v5h-2v-4.86a2.27,2.27,0,0,0-2.55-2.49,2.83,2.83,0,0,0-2.68,1.57,1.73,1.73,0,0,0-.14.71v5.07h-2Z" transform="translate(-36.08 -316.05)"/><path class="cls-1" d="M178.83,345.64c0,2.07,1.78,2.92,3.78,2.92a9.34,9.34,0,0,0,3-.43l.34,1.1a11.41,11.41,0,0,1-3.66.52c-3.39,0-5.42-1.71-5.42-4.25s2-4.55,5.17-4.55c3.59,0,4.55,2.42,4.55,4a4.8,4.8,0,0,1-.07.72Zm5.87-1.1c0-1-.52-2.49-2.77-2.49a2.93,2.93,0,0,0-3.07,2.49Z" transform="translate(-36.08 -316.05)"/><path class="cls-1" d="M189.12,343.77c0-1,0-1.84-.09-2.63h1.75l.07,1.66h.09A3.29,3.29,0,0,1,194,341a3.18,3.18,0,0,1,.57.05v1.45a3.49,3.49,0,0,0-.68-.05,2.61,2.61,0,0,0-2.69,2,3.61,3.61,0,0,0-.09.71v4.49h-2Z" transform="translate(-36.08 -316.05)"/><path class="cls-1" d="M194.06,351.72a20.59,20.59,0,0,0,1.36-4.17l2.23-.17a18.42,18.42,0,0,1-2.16,4.23Z" transform="translate(-36.08 -316.05)"/><path class="cls-1" d="M45.61,364.33a22.59,22.59,0,0,0-.09-2.28h1.76l.09,1.36h.06a4.07,4.07,0,0,1,3.46-1.55A3.31,3.31,0,0,1,54,363.55h.05a4,4,0,0,1,1.22-1.1,4.61,4.61,0,0,1,2.44-.59,3.38,3.38,0,0,1,3.62,3.65v5h-2v-4.77c0-1.62-.77-2.6-2.39-2.6a2.59,2.59,0,0,0-2.37,1.4,1.94,1.94,0,0,0-.15.76v5.21h-2v-5.05a2.14,2.14,0,0,0-2.3-2.32,2.68,2.68,0,0,0-2.48,1.53,1.74,1.74,0,0,0-.16.75v5.09h-2Z" transform="translate(-36.08 -316.05)"/><path class="cls-1" d="M73.81,368.18a22.51,22.51,0,0,0,.09,2.3H72.13L72,369.1h0a4.48,4.48,0,0,1-3.64,1.57c-1.73,0-3.8-.73-3.8-3.69v-4.93h2v4.67c0,1.6.64,2.68,2.46,2.68A2.94,2.94,0,0,0,71.62,368a1.74,1.74,0,0,0,.19-.79v-5.17h2Z" transform="translate(-36.08 -316.05)"/><path class="cls-1" d="M76.86,368.91a6.38,6.38,0,0,0,2.64.61c1.46,0,2.14-.56,2.14-1.25s-.57-1.13-2-1.55c-2-.54-2.91-1.38-2.91-2.39,0-1.36,1.43-2.47,3.8-2.47a6.89,6.89,0,0,1,2.71.52l-.5,1.11a5.49,5.49,0,0,0-2.26-.48c-1.18,0-1.84.52-1.84,1.15s.66,1,2.09,1.42c1.91.56,2.89,1.29,2.89,2.55,0,1.48-1.5,2.52-4.12,2.52a7.82,7.82,0,0,1-3.09-.57Z" transform="translate(-36.08 -316.05)"/><path class="cls-1" d="M88.38,359.68c0,.52-.48.94-1.28.94s-1.21-.42-1.21-.94.53-1,1.26-1S88.38,359.14,88.38,359.68Zm-2.23,10.8v-8.43h2v8.43Z" transform="translate(-36.08 -316.05)"/><path class="cls-1" d="M99.32,370.17a9.57,9.57,0,0,1-3.16.48c-3.32,0-5.49-1.72-5.49-4.3s2.32-4.48,5.92-4.48a8.48,8.48,0,0,1,2.78.44l-.46,1.18a6,6,0,0,0-2.32-.4c-2.53,0-3.89,1.43-3.89,3.19,0,2,1.64,3.15,3.82,3.15A7.24,7.24,0,0,0,99,369Z" transform="translate(-36.08 -316.05)"/><path class="cls-1" d="M103.8,372.92a3.82,3.82,0,0,0,2.19-.65c.55-.48.75-1.15.75-3.17v-7.05h2v7.64c0,1.64-.34,2.71-1.32,3.47a6.06,6.06,0,0,1-3.41,1ZM109,359.68c0,.51-.46.94-1.25.94s-1.23-.43-1.23-.94.52-1,1.27-1S109,359.14,109,359.68Z" transform="translate(-36.08 -316.05)"/><path class="cls-1" d="M122,366.19c0,3.12-2.83,4.48-5.49,4.48-3,0-5.28-1.67-5.28-4.34s2.42-4.47,5.46-4.47S122,363.62,122,366.19Zm-8.74.09a3.35,3.35,0,0,0,6.69,0,3.35,3.35,0,0,0-6.69,0Z" transform="translate(-36.08 -316.05)"/><path class="cls-1" d="M133.73,368.18a22.51,22.51,0,0,0,.09,2.3H132l-.11-1.38h0a4.48,4.48,0,0,1-3.64,1.57c-1.73,0-3.8-.73-3.8-3.69v-4.93h2v4.67c0,1.6.63,2.68,2.45,2.68a2.94,2.94,0,0,0,2.64-1.39,1.74,1.74,0,0,0,.19-.79v-5.17h2Z" transform="translate(-36.08 -316.05)"/><path class="cls-1" d="M137.05,364.68c0-1,0-1.85-.09-2.63h1.75l.07,1.65h.09a3.28,3.28,0,0,1,3-1.84,2.47,2.47,0,0,1,.57.05v1.44a4.4,4.4,0,0,0-.68-.05,2.62,2.62,0,0,0-2.69,2,3.72,3.72,0,0,0-.09.72v4.49h-2Z" transform="translate(-36.08 -316.05)"/><path class="cls-1" d="M144.59,364.33a22.38,22.38,0,0,0-.1-2.28h1.78l.11,1.39h.05a4.36,4.36,0,0,1,3.64-1.58c1.52,0,3.89.69,3.89,3.59v5h-2v-4.86a2.27,2.27,0,0,0-2.55-2.49,2.84,2.84,0,0,0-2.69,1.57,1.73,1.73,0,0,0-.13.71v5.07h-2Z" transform="translate(-36.08 -316.05)"/><path class="cls-1" d="M163.31,370.48l-.16-1.06h-.06a4.64,4.64,0,0,1-3.37,1.25c-2.23,0-3.37-1.2-3.37-2.42,0-2,2.37-3.15,6.62-3.14v-.17c0-.7-.25-1.95-2.5-1.95a6.73,6.73,0,0,0-2.87.63l-.45-1a8.37,8.37,0,0,1,3.62-.75c3.36,0,4.18,1.76,4.18,3.45v3.15a9.6,9.6,0,0,0,.18,2Zm-.29-4.3c-2.19,0-4.67.26-4.67,1.9,0,1,.87,1.46,1.89,1.46a2.77,2.77,0,0,0,2.66-1.41,1.26,1.26,0,0,0,.12-.49Z" transform="translate(-36.08 -316.05)"/><path class="cls-1" d="M168.18,358.11h2v12.37h-2Z" transform="translate(-36.08 -316.05)"/><path class="cls-1" d="M175.79,359.68c0,.52-.48.94-1.28.94s-1.21-.42-1.21-.94.53-1,1.26-1S175.79,359.14,175.79,359.68Zm-2.23,10.8v-8.43h2v8.43Z" transform="translate(-36.08 -316.05)"/><path class="cls-1" d="M178.61,368.91a6.38,6.38,0,0,0,2.64.61c1.45,0,2.14-.56,2.14-1.25s-.57-1.13-2-1.55c-2-.54-2.91-1.38-2.91-2.39,0-1.36,1.43-2.47,3.8-2.47a6.79,6.79,0,0,1,2.7.52l-.5,1.11a5.43,5.43,0,0,0-2.25-.48c-1.18,0-1.84.52-1.84,1.15s.66,1,2.09,1.42c1.91.56,2.89,1.29,2.89,2.55,0,1.48-1.5,2.52-4.12,2.52a7.82,7.82,0,0,1-3.09-.57Z" transform="translate(-36.08 -316.05)"/><path class="cls-1" d="M190.3,359.63v2.42h2.87v1.17H190.3v4.54c0,1.05.39,1.64,1.51,1.64a5.18,5.18,0,0,0,1.16-.11l.09,1.15a6,6,0,0,1-1.78.21,3.26,3.26,0,0,1-2.16-.64,2.63,2.63,0,0,1-.77-2.2v-4.59h-1.71v-1.17h1.71v-2Z" transform="translate(-36.08 -316.05)"/><path class="cls-1" d="M194.06,372.62a20.5,20.5,0,0,0,1.36-4.16l2.23-.18a18.51,18.51,0,0,1-2.16,4.24Z" transform="translate(-36.08 -316.05)"/><path class="cls-1" d="M98.07,391.38l-.16-1.06h-.07a4.62,4.62,0,0,1-3.37,1.25c-2.23,0-3.36-1.2-3.36-2.42,0-2,2.36-3.15,6.62-3.13v-.18c0-.69-.25-1.95-2.51-1.95a6.8,6.8,0,0,0-2.86.63l-.46-1a8.52,8.52,0,0,1,3.62-.75c3.37,0,4.19,1.76,4.19,3.45v3.15a8.93,8.93,0,0,0,.18,2Zm-.3-4.3c-2.18,0-4.66.26-4.66,1.9,0,1,.86,1.46,1.89,1.46A2.77,2.77,0,0,0,97.66,389a1.21,1.21,0,0,0,.11-.49Z" transform="translate(-36.08 -316.05)"/><path class="cls-1" d="M112.45,379v10.19a20.25,20.25,0,0,0,.09,2.17h-1.8l-.09-1.46h0a4.4,4.4,0,0,1-3.76,1.65c-2.66,0-4.71-1.72-4.71-4.28,0-2.8,2.26-4.53,4.94-4.53a4.07,4.07,0,0,1,3.32,1.29h0v-5Zm-2,7.37a2,2,0,0,0-.09-.65,2.87,2.87,0,0,0-2.89-1.78,3.1,3.1,0,0,0-3.3,3.26,3.26,3.26,0,0,0,6.19,1.29,2,2,0,0,0,.09-.66Z" transform="translate(-36.08 -316.05)"/><path class="cls-1" d="M116.55,383l2.16,4.74a19.44,19.44,0,0,1,.89,2.16h.07a22.32,22.32,0,0,1,.93-2.16l2.14-4.74h2.09l-4.32,8.43H118.6L114.41,383Z" transform="translate(-36.08 -316.05)"/><path class="cls-1" d="M127.61,387.45c0,2.07,1.77,2.92,3.78,2.92a9.27,9.27,0,0,0,3-.43l.35,1.1a11.53,11.53,0,0,1-3.67.52c-3.39,0-5.41-1.71-5.41-4.25s2-4.55,5.16-4.55c3.6,0,4.55,2.42,4.55,4a3.75,3.75,0,0,1-.07.72Zm5.87-1.1c0-1-.53-2.49-2.78-2.49a2.94,2.94,0,0,0-3.07,2.49Z" transform="translate(-36.08 -316.05)"/><path class="cls-1" d="M137.89,385.23a22.59,22.59,0,0,0-.09-2.28h1.78l.11,1.4h.05a4.36,4.36,0,0,1,3.64-1.59c1.52,0,3.89.7,3.89,3.59v5h-2v-4.86a2.27,2.27,0,0,0-2.55-2.49A2.84,2.84,0,0,0,140,385.6a1.75,1.75,0,0,0-.13.72v5.06h-2Z" transform="translate(-36.08 -316.05)"/><path class="cls-1" d="M152.85,380.53V383h2.86v1.17h-2.86v4.55c0,1,.38,1.63,1.5,1.63a6,6,0,0,0,1.16-.1l.09,1.15a6.37,6.37,0,0,1-1.78.21,3.26,3.26,0,0,1-2.16-.65,2.62,2.62,0,0,1-.77-2.19v-4.6h-1.71V383h1.71v-2Z" transform="translate(-36.08 -316.05)"/><path class="cls-1" d="M167.18,389.08a22.39,22.39,0,0,0,.09,2.3H165.5l-.12-1.37h0a4.47,4.47,0,0,1-3.64,1.56c-1.73,0-3.8-.73-3.8-3.69V383h2v4.67c0,1.6.64,2.68,2.46,2.68a3,3,0,0,0,2.64-1.39,1.82,1.82,0,0,0,.18-.78V383h2Z" transform="translate(-36.08 -316.05)"/><path class="cls-1" d="M170.51,385.58c0-1,0-1.84-.1-2.63h1.76l.06,1.66h.1a3.27,3.27,0,0,1,3-1.85,3.18,3.18,0,0,1,.57.05v1.45a4.4,4.4,0,0,0-.68-.05,2.6,2.6,0,0,0-2.68,2,3.06,3.06,0,0,0-.09.71v4.49h-2Z" transform="translate(-36.08 -316.05)"/><path class="cls-1" d="M178.83,387.45c0,2.07,1.78,2.92,3.78,2.92a9.34,9.34,0,0,0,3-.43L186,391a11.41,11.41,0,0,1-3.66.52c-3.39,0-5.42-1.71-5.42-4.25s2-4.55,5.17-4.55c3.59,0,4.55,2.42,4.55,4a4.8,4.8,0,0,1-.07.72Zm5.87-1.1c0-1-.52-2.49-2.77-2.49a2.93,2.93,0,0,0-3.07,2.49Z" transform="translate(-36.08 -316.05)"/><path class="cls-1" d="M189.12,385.58c0-1,0-1.84-.09-2.63h1.75l.07,1.66h.09a3.29,3.29,0,0,1,3.05-1.85,3.18,3.18,0,0,1,.57.05v1.45a4.5,4.5,0,0,0-.68-.05,2.61,2.61,0,0,0-2.69,2,3.71,3.71,0,0,0-.09.71v4.49h-2Z" transform="translate(-36.08 -316.05)"/><path class="cls-1" d="M194.88,390.48c0-.65.57-1.1,1.36-1.1s1.35.45,1.35,1.1-.53,1.09-1.37,1.09S194.88,391.1,194.88,390.48Z" transform="translate(-36.08 -316.05)"/></svg>